<svg width="303" height="303" xmlns="http://www.w3.org/2000/svg" xmlns:xlink="http://www.w3.org/1999/xlink" xml:space="preserve" overflow="hidden"><defs><clipPath id="clip0"><rect x="792" y="43" width="303" height="303"/></clipPath></defs><g clip-path="url(#clip0)" transform="translate(-792 -43)"><path d="M455.494 401.894 377.591 317.42 455.565 239.314C457.178 237.698 459.936 238.84 459.936 241.122L459.936 400.159C459.936 402.489 457.075 403.608 455.494 401.894ZM336.51 358.573C332.038 363.052 325.968 365.57 319.639 365.57L319.437 365.57C312.996 365.57 306.818 363.015 302.259 358.464L279.166 335.41 199.926 416.075C198.336 417.694 199.483 420.429 201.753 420.429L442.366 420.429C444.598 420.429 445.76 417.774 444.248 416.134L364.921 330.115 336.51 358.573ZM319.438 347.649 319.443 347.649C321.154 347.649 322.761 346.982 323.97 345.772L441.919 227.621C443.529 226.007 442.387 223.252 440.107 223.252L198.373 223.252C196.092 223.252 194.95 226.012 196.565 227.624L314.919 345.78C316.125 346.987 317.73 347.649 319.438 347.649ZM183.247 245.823 183.247 401.221C183.247 403.513 186.027 404.65 187.633 403.015L266.485 322.747 187.617 244.011C186.003 242.401 183.247 243.545 183.247 245.823Z" transform="matrix(1.0003 0 0 1 621.899 -127.006)"/></g></svg>