<svg width="303" height="303" xmlns="http://www.w3.org/2000/svg" xmlns:xlink="http://www.w3.org/1999/xlink" xml:space="preserve" overflow="hidden"><defs><clipPath id="clip0"><rect x="792" y="43" width="303" height="303"/></clipPath></defs><g clip-path="url(#clip0)" transform="translate(-792 -43)"><path d="M426.597 376.397 353.636 297.283 426.663 224.131C428.173 222.618 430.757 223.688 430.757 225.825L430.757 374.772C430.757 376.955 428.077 378.003 426.597 376.397ZM315.161 335.824C310.973 340.02 305.288 342.378 299.36 342.378L299.171 342.378C293.139 342.378 287.353 339.985 283.083 335.722L261.455 314.131 187.243 389.678C185.753 391.195 186.827 393.757 188.953 393.757L414.302 393.757C416.392 393.757 417.48 391.27 416.064 389.734L341.77 309.172 315.161 335.824ZM299.172 325.594 299.177 325.594C300.779 325.594 302.285 324.969 303.417 323.836L413.883 213.18C415.391 211.669 414.321 209.089 412.186 209.089L185.788 209.089C183.651 209.089 182.582 211.674 184.094 213.183L294.94 323.843C296.07 324.974 297.573 325.594 299.172 325.594ZM171.621 230.228 171.621 375.767C171.621 377.914 174.225 378.978 175.73 377.447L249.578 302.271 175.714 228.531C174.202 227.023 171.621 228.094 171.621 230.228Z" transform="matrix(1 0 0 1.18236 642.391 -161.518)"/></g></svg>